<svg width="256" height="56" viewBox="0 0 256 56" fill="none" xmlns="http://www.w3.org/2000/svg">
<path d="M2.94 21V8.2L4.34 9.6H0.14V7H6.18V21H2.94ZM9.29203 15.3V13.64H12.172L11.352 14.64V7.76L12.312 8.66H9.47203V7H13.592V14.64L12.772 13.64H15.392V15.3H9.29203ZM12.312 21L21.872 7H24.252L14.692 21H12.312ZM20.352 19.32V17.92L24.132 12.7H26.512L22.712 17.92L21.692 17.62H28.332V19.32H20.352ZM24.852 21V19.32L25.072 17.62V16.22H26.992V21H24.852ZM37.2309 18.26L30.5109 11.5L32.1909 9.74L38.9109 16.5L37.2309 18.26ZM32.1909 18.26L30.5109 16.5L37.2309 9.74L38.9109 11.5L32.1909 18.26ZM43.6236 21V8.2L45.0236 9.6H40.8236V7H46.8636V21H43.6236ZM49.9756 15.3V13.64H52.8556L52.0356 14.64V7.76L52.9956 8.66H50.1556V7H54.2756V14.64L53.4556 13.64H56.0756V15.3H49.9756ZM52.9956 21L62.5556 7H64.9356L55.3756 21H52.9956ZM61.0356 19.32V17.92L64.8156 12.7H67.1956L63.3956 17.92L62.3756 17.62H69.0156V19.32H61.0356ZM65.5356 21V19.32L65.7556 17.62V16.22H67.6756V21H65.5356ZM76.7186 21V7H83.5586C85.3186 7 86.6386 7.33333 87.5186 8C88.4119 8.66667 88.8586 9.54667 88.8586 10.64C88.8586 11.3733 88.6786 12.0133 88.3186 12.56C87.9586 13.0933 87.4653 13.5067 86.8386 13.8C86.2119 14.0933 85.4919 14.24 84.6786 14.24L85.0586 13.42C85.9386 13.42 86.7186 13.5667 87.3986 13.86C88.0786 14.14 88.6053 14.56 88.9786 15.12C89.3653 15.68 89.5586 16.3667 89.5586 17.18C89.5586 18.38 89.0853 19.32 88.1386 20C87.1919 20.6667 85.7986 21 83.9586 21H76.7186ZM79.9386 18.56H83.7186C84.5586 18.56 85.1919 18.4267 85.6186 18.16C86.0586 17.88 86.2786 17.44 86.2786 16.84C86.2786 16.2533 86.0586 15.82 85.6186 15.54C85.1919 15.2467 84.5586 15.1 83.7186 15.1H79.6986V12.74H83.1586C83.9453 12.74 84.5453 12.6067 84.9586 12.34C85.3853 12.06 85.5986 11.64 85.5986 11.08C85.5986 10.5333 85.3853 10.1267 84.9586 9.86C84.5453 9.58 83.9453 9.44 83.1586 9.44H79.9386V18.56ZM98.2316 21.24C96.2449 21.24 94.6916 20.6867 93.5716 19.58C92.4516 18.4733 91.8916 16.8933 91.8916 14.84V7H95.1316V14.72C95.1316 16.0533 95.4049 17.0133 95.9516 17.6C96.4982 18.1867 97.2649 18.48 98.2516 18.48C99.2382 18.48 100.005 18.1867 100.552 17.6C101.098 17.0133 101.372 16.0533 101.372 14.72V7H104.572V14.84C104.572 16.8933 104.012 18.4733 102.892 19.58C101.772 20.6867 100.218 21.24 98.2316 21.24ZM112.373 21.24C111.253 21.24 110.18 21.0933 109.153 20.8C108.127 20.4933 107.3 20.1 106.673 19.62L107.773 17.18C108.373 17.6067 109.08 17.96 109.893 18.24C110.72 18.5067 111.553 18.64 112.393 18.64C113.033 18.64 113.547 18.58 113.933 18.46C114.333 18.3267 114.627 18.1467 114.813 17.92C115 17.6933 115.093 17.4333 115.093 17.14C115.093 16.7667 114.947 16.4733 114.653 16.26C114.36 16.0333 113.973 15.8533 113.493 15.72C113.013 15.5733 112.48 15.44 111.893 15.32C111.32 15.1867 110.74 15.0267 110.153 14.84C109.58 14.6533 109.053 14.4133 108.573 14.12C108.093 13.8267 107.7 13.44 107.393 12.96C107.1 12.48 106.953 11.8667 106.953 11.12C106.953 10.32 107.167 9.59333 107.593 8.94C108.033 8.27333 108.687 7.74667 109.553 7.36C110.433 6.96 111.533 6.76 112.853 6.76C113.733 6.76 114.6 6.86667 115.453 7.08C116.307 7.28 117.06 7.58667 117.713 8L116.713 10.46C116.06 10.0867 115.407 9.81333 114.753 9.64C114.1 9.45333 113.46 9.36 112.833 9.36C112.207 9.36 111.693 9.43333 111.293 9.58C110.893 9.72667 110.607 9.92 110.433 10.16C110.26 10.3867 110.173 10.6533 110.173 10.96C110.173 11.32 110.32 11.6133 110.613 11.84C110.907 12.0533 111.293 12.2267 111.773 12.36C112.253 12.4933 112.78 12.6267 113.353 12.76C113.94 12.8933 114.52 13.0467 115.093 13.22C115.68 13.3933 116.213 13.6267 116.693 13.92C117.173 14.2133 117.56 14.6 117.853 15.08C118.16 15.56 118.313 16.1667 118.313 16.9C118.313 17.6867 118.093 18.4067 117.653 19.06C117.213 19.7133 116.553 20.24 115.673 20.64C114.807 21.04 113.707 21.24 112.373 21.24ZM130.127 21V7H133.367V21H130.127ZM120.527 21V7H123.767V21H120.527ZM123.527 15.26V12.52H130.367V15.26H123.527Z" fill="#104272"/>
</svg>
