<svg width="256" height="56" viewBox="0 0 256 56" fill="none" xmlns="http://www.w3.org/2000/svg">
<path d="M0.66 21V18.9L6.06 13.8C6.48667 13.4133 6.8 13.0667 7 12.76C7.2 12.4533 7.33333 12.1733 7.4 11.92C7.48 11.6667 7.52 11.4333 7.52 11.22C7.52 10.66 7.32667 10.2333 6.94 9.94C6.56667 9.63333 6.01333 9.48 5.28 9.48C4.69333 9.48 4.14667 9.59333 3.64 9.82C3.14667 10.0467 2.72667 10.4 2.38 10.88L0.02 9.36C0.553333 8.56 1.3 7.92667 2.26 7.46C3.22 6.99333 4.32667 6.76 5.58 6.76C6.62 6.76 7.52667 6.93333 8.3 7.28C9.08667 7.61333 9.69333 8.08667 10.12 8.7C10.56 9.31333 10.78 10.0467 10.78 10.9C10.78 11.3533 10.72 11.8067 10.6 12.26C10.4933 12.7 10.2667 13.1667 9.92 13.66C9.58667 14.1533 9.09333 14.7067 8.44 15.32L3.96 19.54L3.34 18.36H11.24V21H0.66ZM20.3169 18.26L13.5969 11.5L15.2769 9.74L21.9969 16.5L20.3169 18.26ZM15.2769 18.26L13.5969 16.5L20.3169 9.74L21.9969 11.5L15.2769 18.26ZM26.7095 21V8.2L28.1095 9.6H23.9095V7H29.9495V21H26.7095ZM38.9256 21V7H45.7656C47.5256 7 48.8456 7.33333 49.7256 8C50.619 8.66667 51.0656 9.54667 51.0656 10.64C51.0656 11.3733 50.8856 12.0133 50.5256 12.56C50.1656 13.0933 49.6723 13.5067 49.0456 13.8C48.419 14.0933 47.699 14.24 46.8856 14.24L47.2656 13.42C48.1456 13.42 48.9256 13.5667 49.6056 13.86C50.2856 14.14 50.8123 14.56 51.1856 15.12C51.5723 15.68 51.7656 16.3667 51.7656 17.18C51.7656 18.38 51.2923 19.32 50.3456 20C49.399 20.6667 48.0056 21 46.1656 21H38.9256ZM42.1456 18.56H45.9256C46.7656 18.56 47.399 18.4267 47.8256 18.16C48.2656 17.88 48.4856 17.44 48.4856 16.84C48.4856 16.2533 48.2656 15.82 47.8256 15.54C47.399 15.2467 46.7656 15.1 45.9256 15.1H41.9056V12.74H45.3656C46.1523 12.74 46.7523 12.6067 47.1656 12.34C47.5923 12.06 47.8056 11.64 47.8056 11.08C47.8056 10.5333 47.5923 10.1267 47.1656 9.86C46.7523 9.58 46.1523 9.44 45.3656 9.44H42.1456V18.56ZM60.4386 21.24C58.4519 21.24 56.8986 20.6867 55.7786 19.58C54.6586 18.4733 54.0986 16.8933 54.0986 14.84V7H57.3386V14.72C57.3386 16.0533 57.6119 17.0133 58.1586 17.6C58.7053 18.1867 59.4719 18.48 60.4586 18.48C61.4453 18.48 62.2119 18.1867 62.7586 17.6C63.3053 17.0133 63.5786 16.0533 63.5786 14.72V7H66.7786V14.84C66.7786 16.8933 66.2186 18.4733 65.0986 19.58C63.9786 20.6867 62.4253 21.24 60.4386 21.24ZM74.5803 21.24C73.4603 21.24 72.387 21.0933 71.3603 20.8C70.3336 20.4933 69.507 20.1 68.8803 19.62L69.9803 17.18C70.5803 17.6067 71.287 17.96 72.1003 18.24C72.927 18.5067 73.7603 18.64 74.6003 18.64C75.2403 18.64 75.7536 18.58 76.1403 18.46C76.5403 18.3267 76.8336 18.1467 77.0203 17.92C77.207 17.6933 77.3003 17.4333 77.3003 17.14C77.3003 16.7667 77.1536 16.4733 76.8603 16.26C76.567 16.0333 76.1803 15.8533 75.7003 15.72C75.2203 15.5733 74.687 15.44 74.1003 15.32C73.527 15.1867 72.947 15.0267 72.3603 14.84C71.787 14.6533 71.2603 14.4133 70.7803 14.12C70.3003 13.8267 69.907 13.44 69.6003 12.96C69.307 12.48 69.1603 11.8667 69.1603 11.12C69.1603 10.32 69.3736 9.59333 69.8003 8.94C70.2403 8.27333 70.8936 7.74667 71.7603 7.36C72.6403 6.96 73.7403 6.76 75.0603 6.76C75.9403 6.76 76.807 6.86667 77.6603 7.08C78.5136 7.28 79.267 7.58667 79.9203 8L78.9203 10.46C78.267 10.0867 77.6136 9.81333 76.9603 9.64C76.307 9.45333 75.667 9.36 75.0403 9.36C74.4136 9.36 73.9003 9.43333 73.5003 9.58C73.1003 9.72667 72.8136 9.92 72.6403 10.16C72.467 10.3867 72.3803 10.6533 72.3803 10.96C72.3803 11.32 72.527 11.6133 72.8203 11.84C73.1136 12.0533 73.5003 12.2267 73.9803 12.36C74.4603 12.4933 74.987 12.6267 75.5603 12.76C76.147 12.8933 76.727 13.0467 77.3003 13.22C77.887 13.3933 78.4203 13.6267 78.9003 13.92C79.3803 14.2133 79.767 14.6 80.0603 15.08C80.367 15.56 80.5203 16.1667 80.5203 16.9C80.5203 17.6867 80.3003 18.4067 79.8603 19.06C79.4203 19.7133 78.7603 20.24 77.8803 20.64C77.0136 21.04 75.9136 21.24 74.5803 21.24ZM92.3342 21V7H95.5742V21H92.3342ZM82.7342 21V7H85.9742V21H82.7342ZM85.7342 15.26V12.52H92.5742V15.26H85.7342Z" fill="#104272"/>
</svg>
